PathFileType  4	(X/Y/Z) C:\Users\antoi\Documents\MyRepositories\mobilecap\ResultsAnalysis
DataRate	CameraRate	NumFrames	NumMarkers	Units	OrigDataRate	OrigDataStartFrame	OrigNumFrames
100.0	100.0	4	51	mm	100.0	245	279
Frame#	Time	r_knee			r_shank_antsup			r_ankle			r_calc			r_5meta			r_toe			L_knee			L_shank_antsup			L_ankle			L_calc			L_5meta			L_toe			r_sh2			r_sh3			r_sh4			L_sh2			L_sh3			r_thigh1			r_thigh2			r_thigh3			r_thigh4			r_thigh5			L_thigh1			L_thigh2			L_thigh3			L_thigh4			r.ASIS			r.PSIS			L.ASIS			L.PSIS			C7			R_Shoulder			L_Shoulder			R_Sternum			L_Sternum			R_humerus			R_elbow_med			R_elbow_lat			R_forearm			R_wrist_radius			R_wrist_ulna			L_humerus			L_elbow_med			L_elbow_lat			L_forearm			L_wrist_radius			L_wrist_ulna			R_HJC			L_HJC			R_HJC_reg			L_HJC_reg			
		X1	Y1	Z1	X2	Y2	Z2	X3	Y3	Z3	X4	Y4	Z4	X5	Y5	Z5	X6	Y6	Z6	X7	Y7	Z7	X8	Y8	Z8	X9	Y9	Z9	X10	Y10	Z10	X11	Y11	Z11	X12	Y12	Z12	X13	Y13	Z13	X14	Y14	Z14	X15	Y15	Z15	X16	Y16	Z16	X17	Y17	Z17	X18	Y18	Z18	X19	Y19	Z19	X20	Y20	Z20	X21	Y21	Z21	X22	Y22	Z22	X23	Y23	Z23	X24	Y24	Z24	X25	Y25	Z25	X26	Y26	Z26	X27	Y27	Z27	X28	Y28	Z28	X29	Y29	Z29	X30	Y30	Z30	X31	Y31	Z31	X32	Y32	Z32	X33	Y33	Z33	X34	Y34	Z34	X35	Y35	Z35	X36	Y36	Z36	X37	Y37	Z37	X38	Y38	Z38	X39	Y39	Z39	X40	Y40	Z40	X41	Y41	Z41	X42	Y42	Z42	X43	Y43	Z43	X44	Y44	Z44	X45	Y45	Z45	X46	Y46	Z46	X47	Y47	Z47	X48	Y48	Z48	X49	Y49	Z49	X50	Y50	Z50	X51	Y51	Z51	

245	2.44000000	-211.81625	938.78950	-439.83125	-200.21915	856.88857	-429.36409	-298.93845	509.38216	-465.72649	-368.81284	499.64794	-523.54165	-213.80804	372.14048	-441.37159	-163.64280	385.60706	-492.08015	-220.77409	946.60919	-740.47209	-198.69577	830.72384	-764.87891	-253.44140	499.45387	-742.84835	-317.54964	474.79823	-684.52747	-91.98307	404.64034	-738.92173	-137.01503	373.95775	-786.67913	-217.94415	744.62515	-425.41996	-273.95698	868.03775	-413.75796	-298.93479	755.41269	-419.21062	-287.85849	842.11358	-754.82711	-289.44890	721.16347	-759.80018	-117.86204	1253.34500	-400.91730	-114.34507	1144.28254	-418.72108	-167.47731	1113.41915	-392.07860	-231.84196	1244.71217	-393.96023	-220.41911	1128.08462	-401.26042	-152.38373	1269.73780	-763.19092	-144.18686	1132.04150	-765.16552	-269.47246	1260.56738	-746.88792	-252.41303	1122.58247	-754.79975	-88.05789	1457.94947	-450.67182	-278.75952	1521.61961	-505.59172	-118.83896	1459.51771	-709.55226	-290.95787	1521.25625	-610.41281	-299.83119	2014.81077	-544.91513	-248.30567	2006.73697	-391.18892	-249.64840	2018.95375	-691.36743	-139.02475	1966.77612	-513.78737	-143.05753	1966.45602	-578.86505	-358.88211	1840.45828	-226.60912	-416.44650	1725.92420	-250.73746	-408.43167	1780.47648	-174.89276	-286.93162	1675.08567	-127.85685	-203.25148	1593.14437	-118.82351	-232.96926	1591.03946	-84.55842	-352.77612	1887.64373	-875.87389	-433.83555	1782.72086	-873.42902	-400.96506	1836.10688	-933.14546	-252.97827	1740.46461	-957.75647	-164.62575	1701.77564	-941.53658	-182.38554	1678.79967	-970.44423	-180.29733	1390.12073	-447.78587	-205.32298	1391.41044	-676.78655	-174.58457	1393.47747	-477.64288	-194.47384	1392.88502	-648.55526	
246	2.45000000	-210.69235	936.06378	-438.41108	-199.03975	854.10170	-428.10504	-298.15115	506.29491	-463.14004	-368.72968	497.14943	-520.04508	-213.33033	368.46186	-440.68203	-163.74617	382.16537	-491.86180	-218.78570	943.69598	-740.58112	-197.08645	827.68267	-764.81460	-253.67871	496.85205	-742.72542	-318.23904	472.76679	-684.38869	-92.90041	400.95192	-737.77892	-138.01789	370.38977	-785.38432	-216.83789	741.91142	-423.70852	-272.67667	865.23167	-412.34740	-297.84504	752.70859	-416.90365	-286.18887	839.58009	-755.46248	-288.38999	718.39743	-760.10658	-117.35862	1250.77421	-400.07109	-113.58875	1141.59939	-417.08152	-166.86085	1110.80903	-390.70384	-231.34675	1241.97609	-393.16196	-219.86787	1125.25017	-400.13256	-150.56250	1267.00239	-763.14448	-142.17242	1129.29900	-765.00591	-267.82998	1257.58934	-747.92751	-250.53545	1119.69064	-755.45435	-88.78536	1455.26676	-450.03797	-279.09442	1517.44105	-506.56552	-117.70283	1456.58913	-709.18148	-290.90046	1516.98580	-611.29493	-299.70423	2012.07027	-543.86786	-247.06737	2004.03716	-389.53246	-249.88713	2017.02935	-690.11494	-139.02403	1963.50019	-513.49640	-142.60858	1963.96813	-577.21604	-362.09430	1838.92092	-227.02357	-423.97074	1727.00292	-252.51181	-413.56383	1779.83521	-176.15942	-299.41666	1665.60795	-129.76295	-222.22012	1577.46148	-121.06101	-252.21597	1577.02208	-86.77791	-359.31328	1887.74530	-870.75551	-444.29122	1785.76896	-864.71195	-410.33352	1836.45541	-926.06376	-266.31737	1735.38079	-951.00792	-178.99961	1694.47839	-935.01961	-198.03212	1670.93106	-963.15462	-180.39965	1386.73391	-447.87787	-203.79470	1387.79453	-677.05243	-174.25597	1390.18674	-477.37806	-193.53502	1389.44414	-648.39118	
247	2.46000000	-209.23572	932.03995	-436.67673	-197.88496	850.00855	-426.79165	-297.37970	502.01566	-460.28537	-368.66834	493.49784	-516.17643	-212.78688	363.56153	-439.98739	-163.79770	377.62738	-491.46212	-216.88784	939.68739	-740.74552	-195.50449	823.70612	-764.95222	-253.77812	493.05722	-742.82910	-318.97561	469.68429	-684.59017	-93.75417	396.22298	-736.47037	-138.76022	365.95353	-784.36940	-215.79109	737.96530	-421.77052	-271.13672	861.11042	-411.04504	-296.80602	748.81104	-414.57414	-284.54779	835.92483	-756.08079	-287.38338	714.77185	-760.49370	-116.97959	1247.13482	-398.90991	-112.93729	1137.80091	-415.25062	-166.40164	1107.06499	-389.21048	-231.03481	1238.07780	-392.39908	-219.47520	1121.30699	-399.06538	-148.89997	1263.23509	-763.00594	-140.24693	1125.60014	-765.16875	-266.29007	1253.68495	-749.10811	-248.78570	1115.66136	-756.09876	-89.35348	1451.38420	-449.40260	-279.12404	1512.26316	-507.57440	-116.68839	1452.61599	-708.79374	-290.78236	1511.59009	-612.01634	-299.39142	2008.43897	-543.27712	-245.71127	2000.38010	-387.77661	-249.95695	2014.24577	-688.71524	-138.93224	1959.10065	-513.14864	-142.08589	1960.46947	-575.48439	-365.31400	1836.78433	-227.33544	-431.23801	1727.67728	-254.20655	-418.70091	1778.61251	-177.40408	-312.00624	1656.49907	-132.27110	-240.78938	1563.26572	-124.85059	-270.79692	1564.26139	-90.38118	-365.75379	1887.42714	-865.55491	-454.31007	1788.73390	-856.09074	-419.50190	1836.28635	-918.56853	-279.29717	1730.63965	-944.10490	-193.09331	1687.75799	-928.22932	-213.07113	1663.35721	-955.52410	-180.35361	1382.23431	-447.95639	-202.30553	1383.11395	-677.27442	-173.74843	1386.03627	-476.82298	-192.84530	1384.93384	-647.90556	
248	2.47000000	-207.96337	927.21753	-435.06750	-196.63165	844.75549	-425.30048	-296.58396	496.83604	-456.98528	-368.58266	488.79187	-511.98975	-212.24263	357.65562	-438.86349	-163.78925	372.01965	-490.75520	-215.10339	934.66828	-740.96896	-193.90253	818.68667	-764.97249	-253.72344	488.15780	-742.95715	-319.60324	465.51706	-685.27314	-94.43906	390.46896	-734.91728	-139.03059	360.83642	-784.00802	-214.79788	732.91493	-419.76122	-269.58604	855.93454	-409.60863	-295.54774	743.96629	-412.22600	-282.98223	831.16492	-756.72919	-286.33380	710.18382	-761.04002	-116.88190	1242.33539	-397.62941	-112.52420	1132.85958	-413.64439	-166.17865	1102.17203	-387.88543	-230.95739	1233.08574	-391.78081	-219.26249	1116.29034	-398.12953	-147.47589	1258.33877	-762.84347	-138.54509	1120.87244	-765.48554	-264.92401	1248.68688	-750.03390	-247.11938	1110.52769	-756.74148	-89.80341	1446.37640	-448.78860	-279.26129	1506.29280	-508.43703	-115.75352	1447.62060	-708.41737	-290.53277	1505.27601	-612.55104	-299.05752	2003.93873	-542.66616	-244.37928	1995.74145	-386.15418	-249.88531	2010.48201	-687.19765	-138.93587	1953.88418	-512.32732	-141.83617	1955.73755	-574.17113	-368.55834	1833.84108	-227.72538	-438.45161	1728.00446	-256.53455	-423.96742	1776.59501	-178.73528	-324.54752	1647.76616	-135.43930	-258.81110	1550.61019	-129.53563	-288.58635	1552.52485	-95.16030	-372.09256	1886.56233	-860.35484	-463.78818	1791.08379	-847.49095	-428.46134	1835.75960	-911.18732	-292.10169	1725.96243	-936.83497	-207.54372	1680.85345	-921.45216	-227.70666	1656.31551	-947.66303	-180.32218	1376.74035	-447.98084	-200.96950	1377.49758	-677.42057	-173.55693	1381.04335	-476.34073	-192.09075	1379.37051	-647.54221	
